<svg width="28" height="28" viewBox="0 0 28 28" fill="none" xmlns="http://www.w3.org/2000/svg">
<g id="Calender">
<path id="Vector" d="M9.04169 4.66666C9.04169 4.18341 8.64993 3.79166 8.16669 3.79166C7.68344 3.79166 7.29169 4.18341 7.29169 4.66666V6.78583C5.54977 7.03209 4.17363 8.40985 3.94067 10.1673L3.8397 10.9291C3.82257 11.0582 3.8062 11.1875 3.79058 11.3168C3.74915 11.6597 4.01935 11.9583 4.36481 11.9583H23.6352C23.9806 11.9583 24.2508 11.6597 24.2094 11.3168C24.1938 11.1875 24.1774 11.0582 24.1603 10.9291L24.0593 10.1673C23.8264 8.40987 22.4502 7.03212 20.7084 6.78584V4.66666C20.7084 4.18341 20.3166 3.79166 19.8334 3.79166C19.3501 3.79166 18.9584 4.18341 18.9584 4.66666V6.61223C15.6594 6.31842 12.3407 6.31842 9.04169 6.61223V4.66666Z" fill="white"/>
<path id="Vector_2" d="M24.4353 14.2632C24.4251 13.9523 24.1682 13.7083 23.8573 13.7083H4.14265C3.83164 13.7083 3.57479 13.9523 3.56457 14.2632C3.49528 16.3721 3.62338 18.4854 3.94857 20.5752C4.19474 22.1572 5.48001 23.3724 7.07338 23.5295L8.46522 23.6668C12.1461 24.0297 15.8538 24.0297 19.5346 23.6668L20.9265 23.5295C22.5199 23.3724 23.8051 22.1572 24.0513 20.5752C24.3765 18.4854 24.5046 16.3721 24.4353 14.2632Z" fill="white"/>
</g>
</svg>
