<svg width="28" height="28" viewBox="0 0 28 28" fill="none" xmlns="http://www.w3.org/2000/svg">
<g id="done_FILL0_wght300_GRAD0_opsz24 (3) 1">
<path id="Vector" d="M11.1417 18.1013L21.2199 8.02311C21.3934 7.84961 21.5994 7.76098 21.838 7.75722C22.0765 7.75349 22.2863 7.84212 22.4673 8.02311C22.6483 8.20408 22.7388 8.41198 22.7388 8.64681C22.7388 8.88162 22.6483 9.08952 22.4673 9.27051L11.8798 19.858C11.6689 20.0689 11.4228 20.1743 11.1417 20.1743C10.8605 20.1743 10.6144 20.0689 10.4035 19.858L5.5327 14.9872C5.3592 14.8137 5.27356 14.6076 5.2758 14.3691C5.27806 14.1305 5.36967 13.9207 5.55064 13.7398C5.73163 13.5588 5.93953 13.4683 6.17434 13.4683C6.40917 13.4683 6.61707 13.5588 6.79804 13.7398L11.1417 18.1013Z" fill="white"/>
</g>
</svg>
